<?xml version="1.0" encoding="UTF-8"?>
<svg version="1.1" xmlns="http://www.w3.org/2000/svg" width="560" height="560">
<path d="M0 0 C1.30251709 0.25740967 1.30251709 0.25740967 2.63134766 0.52001953 C41.75693134 8.52834734 76.65819452 26.99893345 105.48925781 54.55664062 C106.51252583 55.53426838 107.54069027 56.50679224 108.57324219 57.47460938 C117.83080401 66.17502918 125.63242259 75.65940898 133 86 C133.4120166 86.5779834 133.8240332 87.1559668 134.24853516 87.75146484 C158.95554818 123.00659335 171.21640266 164.92648898 171.25 207.75 C171.25067474 208.5252301 171.25134949 209.30046021 171.25204468 210.09918213 C171.23435507 222.93852875 170.52468952 235.3790155 168 248 C167.82839355 248.86689453 167.65678711 249.73378906 167.47998047 250.62695312 C159.70418533 288.62342122 142.15001604 324.27967062 115.375 352.44921875 C112.98044837 354.95357876 112.98044837 354.95357876 110.91796875 357.625 C109.1663693 359.79398669 107.43544286 361.51890258 105.3125 363.3125 C103.21078026 365.10030167 101.12604591 366.88178303 99.11328125 368.76953125 C80.97595606 385.69532588 48.87895428 408.91593571 23.125 410.5625 C19.57326701 410.40337218 18.98306776 409.98659531 16 407.625 C12.90859996 403.56753745 12.86904231 401.45885558 12.84228516 396.36987305 C12.83720444 395.68820572 12.83212372 395.00653839 12.82688904 394.30421448 C12.81617461 392.8200834 12.80755864 391.33593607 12.80076981 389.85178185 C12.78896095 387.49141996 12.76949621 385.13123943 12.74765015 382.77095032 C12.68615027 376.05821934 12.63228934 369.34550106 12.59863281 362.63256836 C12.57748984 358.52575369 12.54201905 354.41926052 12.49787521 350.31263161 C12.48385244 348.7576156 12.47502433 347.20254259 12.47182083 345.64746666 C12.44155348 332.34433377 11.29957685 319.52799028 4 308 C3.4534375 307.45601563 2.906875 306.91203125 2.34375 306.3515625 C1 305 1 305 1 303 C0.34 302.67 -0.32 302.34 -1 302 C0.258125 301.7525 1.51625 301.505 2.8125 301.25 C3.72773438 301.06308594 4.64296875 300.87617188 5.5859375 300.68359375 C8.13039975 300.17411904 10.67461234 299.69113842 13.2265625 299.22265625 C37.06293682 294.70387647 60.98558505 285.93246475 76.09375 265.83984375 C92.50725622 241.38775558 98.00974265 208.83416912 92.8125 179.9375 C89.87379059 167.49924157 85.06253786 154.08944874 76 144.75 C74 142 74 142 74.0625 138.5 C74.35533217 136.99603671 74.67092488 135.49645107 75 134 C77.8158684 118.94966888 77.23505813 105.58556688 72.83984375 90.9765625 C72 88 72 88 72 85 C51.60952947 83.77657177 31.48620496 95.0091967 15 106 C10.01697843 106.11521769 5.00563341 105.04624332 0.14453125 104.02734375 C-25.52239397 98.65695088 -54.71073921 98.41893409 -80.28613281 104.54785156 C-90.93141086 107.05965874 -90.93141086 107.05965874 -95.8671875 104.53125 C-96.85976562 103.8609375 -97.85234375 103.190625 -98.875 102.5 C-113.36227337 93.09850426 -129.30850458 84.85378929 -147 85 C-149.34251299 85.88132305 -149.34251299 85.88132305 -150.03515625 88.94921875 C-150.54369141 90.79966797 -150.54369141 90.79966797 -151.0625 92.6875 C-151.40410156 93.90824219 -151.74570313 95.12898438 -152.09765625 96.38671875 C-153.75093922 103.0070077 -154.22007371 109.20428869 -154.25 116 C-154.25974854 116.93191162 -154.26949707 117.86382324 -154.27954102 118.82397461 C-154.25944532 124.50223378 -153.6015649 129.14672513 -151.9375 134.5625 C-150.90539092 138.64293124 -150.5936417 140.21987354 -152.55859375 143.9921875 C-154.13523121 145.99688336 -155.7659251 147.95996198 -157.44140625 149.8828125 C-170.72041562 165.26058683 -172.90135954 188.77891718 -171.73828125 208.12109375 C-170.05401263 230.83750765 -164.98873822 253.85177313 -149 271 C-148.32453125 271.76570313 -147.6490625 272.53140625 -146.953125 273.3203125 C-128.94621595 292.70731312 -101.93452062 297.71655581 -77 302 C-77.56267578 302.65742187 -77.56267578 302.65742187 -78.13671875 303.328125 C-84.72868236 311.49751063 -88.12085701 320.75012912 -90 331 C-102.83102286 335.77750851 -116.21555722 339.00981966 -129.63671875 334.16015625 C-140.88819158 328.63670595 -147.6563599 319.97006492 -154.5 309.8125 C-160.727218 300.86438045 -168.86720413 294.6850685 -179.71484375 292.4375 C-184.31733159 291.88381725 -188.45369785 291.92324423 -193 293 C-191.16774741 299.76524034 -187.41876409 302.15536148 -181.77734375 306.0546875 C-171.58711049 313.19215046 -166.54111288 323.68323986 -161.25488281 334.62255859 C-155.58293887 346.32212332 -149.09668723 353.43246034 -136.703125 358.29296875 C-124.53916231 362.1045272 -113.02973307 362.36782873 -100.5078125 361.0078125 C-99.1302478 360.86388062 -99.1302478 360.86388062 -97.72485352 360.71704102 C-95.48276216 360.48218304 -93.24121123 360.24308937 -91 360 C-90.9008983 366.01394883 -90.82842084 372.02741915 -90.78027344 378.04199219 C-90.7601958 380.0866728 -90.73292775 382.13129627 -90.69824219 384.17578125 C-90.64955481 387.11993537 -90.62699256 390.06332834 -90.609375 393.0078125 C-90.58872986 393.9174173 -90.56808472 394.82702209 -90.54681396 395.76419067 C-90.54480492 401.4858702 -91.22832024 404.62250185 -95 409 C-99.03798514 411.01899257 -103.98309256 410.51203089 -108.27148438 409.42333984 C-110.63981216 408.5931884 -112.94079626 407.67021939 -115.25 406.6875 C-116.10335937 406.33429688 -116.95671875 405.98109375 -117.8359375 405.6171875 C-132.2339914 399.50955822 -146.36963619 392.26703747 -159 383 C-159.5249707 382.61489258 -160.04994141 382.22978516 -160.59082031 381.83300781 C-167.2949494 376.88051409 -173.6622037 371.67488964 -179.79296875 366.01953125 C-181.71482152 364.26095093 -183.67647489 362.59180225 -185.6875 360.9375 C-189.55046881 357.63918788 -192.72887309 353.87286063 -196 350 C-197.22009766 348.62908203 -197.22009766 348.62908203 -198.46484375 347.23046875 C-215.37366885 328.0918406 -228.56191506 305.09060503 -237 281 C-237.24411621 280.32179199 -237.48823242 279.64358398 -237.73974609 278.94482422 C-256.78635961 225.4673306 -252.06072783 166.35944439 -228.1875 115.3125 C-213.97312077 85.72515188 -192.14919788 58.77838533 -165.69873047 39.25878906 C-164.04490162 38.03327289 -162.41465656 36.78103536 -160.78515625 35.5234375 C-116.24403965 1.75947716 -54.58512165 -10.84928247 0 0 Z " fill="#FDFDFD" transform="translate(319,77)"/>
</svg>
